<?xml version="1.0" encoding="utf-8"?>
<!-- Generator: Adobe Illustrator 16.0.0, SVG Export Plug-In . SVG Version: 6.00 Build 0)  -->
<!DOCTYPE svg PUBLIC "-//W3C//DTD SVG 1.1//EN" "http://www.w3.org/Graphics/SVG/1.1/DTD/svg11.dtd">
<svg version="1.1" id="Layer_1" xmlns="http://www.w3.org/2000/svg" xmlns:xlink="http://www.w3.org/1999/xlink" x="0px" y="0px"
	 width="612px" height="792px" viewBox="0 0 612 792" enable-background="new 0 0 612 792" xml:space="preserve">
<linearGradient id="SVGID_1_" gradientUnits="userSpaceOnUse" x1="491.2422" y1="683.3652" x2="387.752" y2="500.648">
	<stop  offset="0" style="stop-color:#F68F71"/>
	<stop  offset="0" style="stop-color:#F68F71"/>
	<stop  offset="0.41" style="stop-color:#DC5242"/>
	<stop  offset="0.99" style="stop-color:#A72C32"/>
	<stop  offset="1" style="stop-color:#A72C32"/>
</linearGradient>
<polygon fill-rule="evenodd" clip-rule="evenodd" fill="url(#SVGID_1_)" points="160.246,638.888 522.882,614.278 550.81,248.621 
	440.313,472.585 "/>
<linearGradient id="SVGID_2_" gradientUnits="userSpaceOnUse" x1="542.7983" y1="529.8916" x2="409.4275" y2="440.3917">
	<stop  offset="0" style="stop-color:#9B3F34"/>
	<stop  offset="0" style="stop-color:#9B3F34"/>
	<stop  offset="0.99" style="stop-color:#A23E36"/>
	<stop  offset="1" style="stop-color:#A23E36"/>
</linearGradient>
<polygon fill-rule="evenodd" clip-rule="evenodd" fill="url(#SVGID_2_)" points="407.41,511.01 523.477,614.03 492.306,398.904 "/>
<linearGradient id="SVGID_3_" gradientUnits="userSpaceOnUse" x1="436.0894" y1="688.9082" x2="302.7184" y2="599.4083">
	<stop  offset="0" style="stop-color:#9B3F34"/>
	<stop  offset="0" style="stop-color:#9B3F34"/>
	<stop  offset="0.99" style="stop-color:#A23E36"/>
	<stop  offset="1" style="stop-color:#A23E36"/>
</linearGradient>
<polygon fill-rule="evenodd" clip-rule="evenodd" fill="url(#SVGID_3_)" points="161.458,638.417 523.897,614.03 295.55,596.104 "/>
<linearGradient id="SVGID_4_" gradientUnits="userSpaceOnUse" x1="156.0767" y1="465.1118" x2="176.7524" y2="599.4832">
	<stop  offset="0" style="stop-color:#FFFFFF"/>
	<stop  offset="0" style="stop-color:#FFFFFF"/>
	<stop  offset="0.23" style="stop-color:#E28B6F"/>
	<stop  offset="0.46" style="stop-color:#DA6144"/>
	<stop  offset="0.99" style="stop-color:#A60003"/>
	<stop  offset="1" style="stop-color:#A60003"/>
</linearGradient>
<polygon fill-rule="evenodd" clip-rule="evenodd" fill="url(#SVGID_4_)" points="93.298,478.428 161.781,638.467 218.823,451.59 "/>
<linearGradient id="SVGID_5_" gradientUnits="userSpaceOnUse" x1="298.2803" y1="339.6333" x2="305.8984" y2="476.7698">
	<stop  offset="0" style="stop-color:#FFFFFF"/>
	<stop  offset="0" style="stop-color:#FFFFFF"/>
	<stop  offset="0.23" style="stop-color:#E08A6D"/>
	<stop  offset="0.56" style="stop-color:#C14435"/>
	<stop  offset="0.99" style="stop-color:#B13430"/>
	<stop  offset="1" style="stop-color:#B13430"/>
</linearGradient>
<polygon fill-rule="evenodd" clip-rule="evenodd" fill="url(#SVGID_5_)" points="204.686,446.837 407.384,511.629 354.897,306.035 
	"/>
<linearGradient id="SVGID_6_" gradientUnits="userSpaceOnUse" x1="424.478" y1="212.9028" x2="447.2829" y2="311.1805">
	<stop  offset="0" style="stop-color:#FFFFFF"/>
	<stop  offset="0" style="stop-color:#FFFFFF"/>
	<stop  offset="0.18" style="stop-color:#DF8063"/>
	<stop  offset="0.4" style="stop-color:#C94D37"/>
	<stop  offset="0.99" style="stop-color:#B13430"/>
	<stop  offset="1" style="stop-color:#B13430"/>
</linearGradient>
<polygon fill-rule="evenodd" clip-rule="evenodd" fill="url(#SVGID_6_)" points="357.373,320.791 538.901,308.932 396.912,192.964 
	"/>
<linearGradient id="SVGID_7_" gradientUnits="userSpaceOnUse" x1="354.8369" y1="178.2866" x2="453.113" y2="129.1485">
	<stop  offset="0" style="stop-color:#FFFFFF"/>
	<stop  offset="0" style="stop-color:#FFFFFF"/>
	<stop  offset="0.54" style="stop-color:#C94838"/>
	<stop  offset="0.99" style="stop-color:#C12D2F"/>
	<stop  offset="1" style="stop-color:#C12D2F"/>
</linearGradient>
<polygon fill-rule="evenodd" clip-rule="evenodd" fill="url(#SVGID_7_)" points="336.303,150.998 472.5,151.616 388.989,197.767 "/>
<linearGradient id="SVGID_8_" gradientUnits="userSpaceOnUse" x1="69.9363" y1="430.8545" x2="78.0249" y2="511.8391">
	<stop  offset="0" style="stop-color:#FFFFFF"/>
	<stop  offset="0" style="stop-color:#FFFFFF"/>
	<stop  offset="0.31" style="stop-color:#DA6548"/>
	<stop  offset="0.99" style="stop-color:#C14433"/>
	<stop  offset="1" style="stop-color:#C14433"/>
</linearGradient>
<polygon fill-rule="evenodd" clip-rule="evenodd" fill="url(#SVGID_8_)" points="66.955,401.306 60.271,541.116 95.254,477.313 "/>
<path fill-rule="evenodd" clip-rule="evenodd" fill="#FFFFFF" d="M65.074,398.904l28.472,80.762l123.717-27.754l141.248-131.27
	l39.861-126.615L335.61,149.71L228.9,189.645c-33.622,31.271-98.861,93.142-101.212,94.306
	C125.361,285.14,84.608,362.162,65.074,398.904z"/>
<linearGradient id="SVGID_9_" gradientUnits="userSpaceOnUse" x1="14.3169" y1="533.7354" x2="394.5425" y2="142.7571">
	<stop  offset="0" style="stop-color:#BD0012"/>
	<stop  offset="0" style="stop-color:#BD0012"/>
	<stop  offset="0.07" style="stop-color:#FFFFFF"/>
	<stop  offset="0.17" style="stop-color:#FFFFFF"/>
	<stop  offset="0.27" style="stop-color:#C95841"/>
	<stop  offset="0.33" style="stop-color:#983734"/>
	<stop  offset="0.46" style="stop-color:#AE4231"/>
	<stop  offset="0.72" style="stop-color:#B93E2F"/>
	<stop  offset="0.99" style="stop-color:#DE4E2B"/>
	<stop  offset="1" style="stop-color:#DE4E2B"/>
</linearGradient>
<path fill-rule="evenodd" clip-rule="evenodd" fill="url(#SVGID_9_)" d="M165.049,253.819
	c72.864-72.245,166.798-114.929,202.846-78.559c36.023,36.372-2.18,124.758-75.043,196.978
	c-72.864,72.221-165.633,117.257-201.658,80.886C55.146,416.779,92.184,326.04,165.049,253.819z"/>
<linearGradient id="SVGID_10_" gradientUnits="userSpaceOnUse" x1="305.5688" y1="573.1606" x2="191.0513" y2="544.8968">
	<stop  offset="0" style="stop-color:#9F3633"/>
	<stop  offset="0" style="stop-color:#9F3633"/>
	<stop  offset="0.54" style="stop-color:#A73532"/>
	<stop  offset="0.99" style="stop-color:#B13439"/>
	<stop  offset="1" style="stop-color:#B13439"/>
</linearGradient>
<path fill-rule="evenodd" clip-rule="evenodd" fill="url(#SVGID_10_)" d="M161.781,638.392l56.597-187.47l187.966,60.384
	C338.382,575.035,262.795,628.909,161.781,638.392z"/>
<linearGradient id="SVGID_11_" gradientUnits="userSpaceOnUse" x1="502.2725" y1="435.7046" x2="400.5307" y2="344.5163">
	<stop  offset="0" style="stop-color:#923C36"/>
	<stop  offset="0" style="stop-color:#923C36"/>
	<stop  offset="0.99" style="stop-color:#AA3531"/>
	<stop  offset="1" style="stop-color:#AA3531"/>
</linearGradient>
<path fill-rule="evenodd" clip-rule="evenodd" fill="url(#SVGID_11_)" d="M358.759,320.271l48.254,191.135
	c56.771-59.693,107.725-123.867,132.68-203.242L358.759,320.271z"/>
<linearGradient id="SVGID_12_" gradientUnits="userSpaceOnUse" x1="539.6504" y1="268.3931" x2="488.9697" y2="214.2118">
	<stop  offset="0" style="stop-color:#8D3E36"/>
	<stop  offset="0" style="stop-color:#8D3E36"/>
	<stop  offset="0.99" style="stop-color:#AA3E37"/>
	<stop  offset="1" style="stop-color:#AA3E37"/>
</linearGradient>
<path fill-rule="evenodd" clip-rule="evenodd" fill="url(#SVGID_12_)" d="M539.199,309.13
	c19.311-58.281,23.767-141.891-67.294-157.414l-74.722,41.272L539.199,309.13z"/>
<path fill-rule="evenodd" clip-rule="evenodd" fill="#AA3E35" d="M60.271,540.274c2.673,96.187,72.072,97.624,101.633,98.465
	L93.62,479.27L60.271,540.274z"/>
<radialGradient id="SVGID_13_" cx="416.3711" cy="346.2686" r="124.6829" gradientUnits="userSpaceOnUse">
	<stop  offset="0" style="stop-color:#B13430"/>
	<stop  offset="0" style="stop-color:#B13430"/>
	<stop  offset="0.99" style="stop-color:#923934"/>
	<stop  offset="1" style="stop-color:#923934"/>
</radialGradient>
<path fill-rule="evenodd" clip-rule="evenodd" fill="url(#SVGID_13_)" d="M359.031,320.569
	c43.623,26.812,131.542,80.662,133.324,81.653c2.772,1.56,37.904-59.248,45.877-93.612L359.031,320.569z"/>
<radialGradient id="SVGID_14_" cx="243.7056" cy="510.5645" r="165.7505" gradientUnits="userSpaceOnUse">
	<stop  offset="0" style="stop-color:#AE3531"/>
	<stop  offset="0" style="stop-color:#AE3531"/>
	<stop  offset="0.99" style="stop-color:#953A36"/>
	<stop  offset="1" style="stop-color:#953A36"/>
</radialGradient>
<path fill-rule="evenodd" clip-rule="evenodd" fill="url(#SVGID_14_)" d="M218.303,450.922l75.662,145.976
	c44.739-24.264,79.773-53.825,111.859-85.491L218.303,450.922z"/>
<linearGradient id="SVGID_15_" gradientUnits="userSpaceOnUse" x1="126.3042" y1="638.2905" x2="85.0021" y2="498.1659">
	<stop  offset="0" style="stop-color:#994939"/>
	<stop  offset="0" style="stop-color:#994939"/>
	<stop  offset="0.43" style="stop-color:#AA3A36"/>
	<stop  offset="0.99" style="stop-color:#B83936"/>
	<stop  offset="1" style="stop-color:#B83936"/>
</linearGradient>
<path fill-rule="evenodd" clip-rule="evenodd" fill="url(#SVGID_15_)" d="M93.322,479.468L82.603,607.123
	c20.228,27.631,48.056,30.031,77.246,27.878C138.73,582.439,96.542,477.339,93.322,479.468z"/>
<linearGradient id="SVGID_16_" gradientUnits="userSpaceOnUse" x1="443.1431" y1="173.9697" x2="535.7395" y2="214.8434">
	<stop  offset="0" style="stop-color:#B9392F"/>
	<stop  offset="0" style="stop-color:#B9392F"/>
	<stop  offset="0.44" style="stop-color:#A23A36"/>
	<stop  offset="0.99" style="stop-color:#8D463A"/>
	<stop  offset="1" style="stop-color:#8D463A"/>
</linearGradient>
<path fill-rule="evenodd" clip-rule="evenodd" fill="url(#SVGID_16_)" d="M396.738,193.309l150.309,21.095
	c-8.022-33.994-32.657-55.929-74.646-62.787L396.738,193.309z"/>
</svg>
