<?xml version="1.0" encoding="iso-8859-1"?>
<!-- Generator: Adobe Illustrator 19.0.0, SVG Export Plug-In . SVG Version: 6.00 Build 0)  -->
<svg version="1.1" id="Layer_1" xmlns="http://www.w3.org/2000/svg" xmlns:xlink="http://www.w3.org/1999/xlink" x="0px" y="0px"
	 viewBox="0 0 512 512" style="enable-background:new 0 0 512 512;" xml:space="preserve">
<circle style="fill:#F2CF61;" cx="256" cy="256" r="256"/>
<polygon style="fill:#E6E6E6;" points="412,228 100,228 256,108 "/>
<path style="fill:#CCCCCC;" d="M105.86,400.256L244,312l-138.252-92.168c-3.484,2.94-5.752,7.28-5.752,12.168v156
	C100,392.936,102.312,397.316,105.86,400.256z"/>
<path style="fill:#B3B3B3;" d="M256,324l150.348-104.084c-2.8-2.404-6.396-3.916-10.348-3.916H116
	c-3.956,0-7.548,1.508-10.348,3.916L256,324z"/>
<path style="fill:#CCCCCC;" d="M406.252,219.832L268,312l138.14,88.256c3.548-2.94,5.86-7.32,5.86-12.256V232
	C412,227.112,409.736,222.772,406.252,219.832z"/>
<path style="fill:#E6E6E6;" d="M256,296L105.652,400.084c2.8,2.404,6.392,3.916,10.348,3.916h280c3.952,0,7.548-1.508,10.348-3.916
	L256,296z"/>
<g>
</g>
<g>
</g>
<g>
</g>
<g>
</g>
<g>
</g>
<g>
</g>
<g>
</g>
<g>
</g>
<g>
</g>
<g>
</g>
<g>
</g>
<g>
</g>
<g>
</g>
<g>
</g>
<g>
</g>
</svg>
